<svg viewBox="0 0 30 30" fill="none" xmlns="http://www.w3.org/2000/svg">
<path d="M8.15112 16.9898C9.12231 16.9898 9.90961 16.2025 9.90961 15.2313C9.90961 14.2601 9.12231 13.4728 8.15112 13.4728C7.17994 13.4728 6.39264 14.2601 6.39264 15.2313C6.39264 16.2025 7.17994 16.9898 8.15112 16.9898Z"/>
<path d="M15 16.9898C15.9712 16.9898 16.7585 16.2025 16.7585 15.2313C16.7585 14.2601 15.9712 13.4728 15 13.4728C14.0288 13.4728 13.2415 14.2601 13.2415 15.2313C13.2415 16.2025 14.0288 16.9898 15 16.9898Z"/>
<path d="M15 0C6.7713 0 0.0768433 6.69445 0.0768433 14.9231C0.0768433 18.3546 1.26039 21.6798 3.41796 24.3335C2.80249 25.8843 1.77165 27.2253 0.419192 28.2289C0.212154 28.3826 0.107293 28.6384 0.14709 28.8932C0.186795 29.1481 0.364494 29.3598 0.60846 29.4431C1.68974 29.8126 2.81637 30 3.95717 30C5.76859 30 7.53873 29.5286 9.10017 28.6337C10.9658 29.4385 12.9488 29.8465 15.0001 29.8465C23.2288 29.8465 29.9232 23.1519 29.9232 14.9232C29.9232 6.69455 23.2287 0 15 0ZM15 28.4581C13.0268 28.4581 11.1238 28.0423 9.34414 27.2224C9.13201 27.1246 8.88518 27.14 8.68684 27.2634C7.26959 28.1454 5.63402 28.6115 3.95707 28.6115C3.39686 28.6115 2.84044 28.5593 2.2929 28.4557C3.45174 27.334 4.33034 25.9614 4.86473 24.4253C4.94599 24.1916 4.89675 23.9322 4.73534 23.7447C2.62646 21.2934 1.46512 18.1605 1.46512 14.9231C1.46512 7.46004 7.53688 1.38828 15 1.38828C22.4631 1.38828 28.5348 7.46004 28.5348 14.9231C28.5349 22.3864 22.4632 28.4581 15 28.4581Z"/>
<path d="M21.8488 16.9898C22.82 16.9898 23.6073 16.2025 23.6073 15.2313C23.6073 14.2601 22.82 13.4728 21.8488 13.4728C20.8776 13.4728 20.0903 14.2601 20.0903 15.2313C20.0903 16.2025 20.8776 16.9898 21.8488 16.9898Z"/>
</svg>
