<svg viewBox="0 0 167 160" mlns="http://www.w3.org/2000/svg">
<path d="M48.8835 150.346L51.7816 151.472C51.6877 151.867 51.6653 152.241 51.7144 152.595C51.7618 152.953 51.8729 153.285 52.0475 153.591C52.2221 153.897 52.4554 154.171 52.7475 154.411C53.0351 154.649 53.373 154.844 53.7612 154.995C54.4626 155.267 55.1418 155.331 55.7988 155.185C56.4542 155.044 57.0548 154.699 57.6007 154.15C58.145 153.606 58.6011 152.865 58.9692 151.928C59.3477 150.964 59.5223 150.099 59.4931 149.332C59.4595 148.563 59.2481 147.911 58.8589 147.374C58.4697 146.837 57.9333 146.436 57.2495 146.171C56.8658 146.022 56.4908 145.934 56.1246 145.909C55.754 145.882 55.4028 145.915 55.0709 146.009C54.7373 146.108 54.4314 146.266 54.1531 146.482C53.8705 146.697 53.6252 146.972 53.4174 147.307L50.5244 146.168C50.8431 145.577 51.2656 145.051 51.7919 144.591C52.3121 144.134 52.9127 143.776 53.5936 143.519C54.2683 143.263 55.0038 143.138 55.8 143.143C56.5901 143.151 57.4197 143.323 58.2887 143.661C59.4974 144.13 60.4709 144.823 61.2095 145.738C61.9436 146.652 62.3833 147.734 62.5285 148.982C62.6694 150.228 62.4512 151.586 61.874 153.056C61.2951 154.53 60.5246 155.677 59.5627 156.495C58.6008 157.313 57.5371 157.808 56.3717 157.979C55.2046 158.154 54.0255 158.011 52.8345 157.548C52.0493 157.243 51.3647 156.851 50.7806 156.37C50.1921 155.888 49.7206 155.335 49.366 154.71C49.0096 154.09 48.7875 153.413 48.6995 152.679C48.6072 151.943 48.6685 151.166 48.8835 150.346Z"/>
<path d="M25.7033 129.943C26.8072 128.806 27.9629 128.047 29.1705 127.666C30.3747 127.281 31.553 127.235 32.7053 127.529C33.8509 127.822 34.886 128.413 35.8105 129.301C36.7419 130.195 37.3734 131.209 37.7052 132.34C38.0369 133.472 38.0305 134.643 37.6861 135.853C37.3416 137.063 36.6191 138.235 35.5185 139.368C34.4147 140.505 33.2607 141.266 32.0565 141.65C30.8523 142.035 29.6774 142.08 28.5318 141.787C27.3829 141.497 26.3427 140.904 25.4114 140.01C24.4868 139.122 23.8587 138.112 23.527 136.981C23.1885 135.849 23.1915 134.678 23.536 133.468C23.8771 132.254 24.5995 131.079 25.7033 129.943ZM27.9499 132.1C27.2349 132.836 26.7428 133.564 26.4735 134.282C26.2009 134.998 26.1373 135.677 26.2828 136.322C26.4282 136.967 26.7687 137.546 27.3044 138.06C27.84 138.575 28.4342 138.893 29.0871 139.015C29.74 139.137 30.4228 139.052 31.1355 138.759C31.8448 138.463 32.557 137.947 33.272 137.211C33.987 136.475 34.4808 135.749 34.7535 135.034C35.0227 134.315 35.0846 133.633 34.9391 132.989C34.7937 132.344 34.4531 131.765 33.9175 131.25C33.3819 130.736 32.7876 130.418 32.1348 130.296C31.4819 130.174 30.8008 130.261 30.0915 130.557C29.3788 130.849 28.6649 131.364 27.9499 132.1Z"/>
<path d="M4.27828 107.027L17.6378 101.296L18.6933 103.729L12.7993 113.133L12.8416 113.23L21.25 109.623L22.472 112.441L9.11246 118.171L8.04008 115.699L13.9473 106.344L13.8965 106.227L5.49458 109.831L4.27828 107.027Z"/>
<path d="M2.67406 87.0812L0.139709 87.1105L2.82033e-06 75.1858L2.53436 75.1565L2.58643 79.6017L14.5909 79.463L14.6264 82.4973L2.62198 82.6361L2.67406 87.0812Z"/>
<path d="M18.4243 57.495L17.1858 60.5435L5.5839 50.4789L7.07334 46.8129L22.4469 47.5942L21.2084 50.6426L9.43244 49.8318L9.38973 49.937L18.4243 57.495ZM13.0448 55.5553L15.9703 48.3547L18.1965 49.2491L15.2711 56.4497L13.0448 55.5553Z"/>
<path d="M32.4274 20.769L30.2367 22.973C29.91 22.7314 29.5736 22.5632 29.2276 22.4685C28.8782 22.3705 28.5275 22.3408 28.1756 22.3796C27.8237 22.4183 27.4788 22.5237 27.1411 22.6958C26.8067 22.8645 26.4928 23.0964 26.1994 23.3916C25.6692 23.925 25.3406 24.5206 25.2137 25.1784C25.0833 25.8329 25.1628 26.5178 25.452 27.2332C25.7379 27.9453 26.2401 28.6544 26.9586 29.3607C27.6973 30.0868 28.4263 30.5879 29.1457 30.8638C29.8684 31.1365 30.5546 31.2008 31.2044 31.057C31.8542 30.9131 32.4376 30.5812 32.9544 30.0613C33.2445 29.7694 33.4741 29.4612 33.6433 29.1367C33.8158 28.8089 33.9245 28.4747 33.9695 28.1343C34.0111 27.7905 33.9873 27.4488 33.8981 27.1091C33.8122 26.766 33.656 26.4334 33.4294 26.1112L35.6302 23.9172C36.0492 24.4417 36.3662 25.0352 36.5814 25.6977C36.7965 26.3535 36.8877 27.0433 36.855 27.7673C36.8223 28.4846 36.6454 29.206 36.3243 29.9316C36.0032 30.6506 35.5142 31.3405 34.8573 32.0013C33.9437 32.9205 32.9176 33.5368 31.7791 33.8503C30.644 34.1604 29.4716 34.1355 28.2621 33.7756C27.056 33.4124 25.8896 32.6771 24.7629 31.5697C23.6329 30.4589 22.8816 29.3026 22.509 28.1008C22.1364 26.8989 22.1028 25.7318 22.4081 24.5993C22.71 23.4636 23.3112 22.4429 24.2114 21.5371C24.8049 20.94 25.4394 20.4694 26.1149 20.1252C26.7937 19.7778 27.4918 19.5653 28.2091 19.4877C28.923 19.4069 29.6361 19.4711 30.3483 19.6804C31.0639 19.8864 31.7569 20.2492 32.4274 20.769Z"/>
<path d="M46.8241 8.25841L45.8439 5.92422L56.8698 1.34509L57.8501 3.67928L53.74 5.38624L58.3832 16.4426L55.5775 17.6078L50.9343 6.55145L46.8241 8.25841Z"/>
<path d="M105.112 14.9859L106.895 0L109.995 1.28771L108.31 11.5147L108.422 11.5609L114.781 3.27509L117.435 4.37767L115.965 14.7168L116.083 14.7658L122.221 6.36505L125.321 7.65276L115.857 19.4479L113.09 18.2991L114.21 8.48248L114.105 8.43892L107.879 16.1347L105.112 14.9859Z"/>
<path d="M143.919 22.9526L133.556 33.1383L131.39 30.9595L141.753 20.7738L143.919 22.9526Z"/>
<path d="M156.266 44.5274L158.617 43.5827L163.107 54.6333L160.756 55.578L159.082 51.4587L147.944 55.9336L146.802 53.1217L157.94 48.6468L156.266 44.5274Z"/>
<path d="M152.461 75.2943L167 75.4625L166.964 78.5323L160.965 78.4629L160.892 84.6947L166.891 84.7641L166.855 87.8268L152.317 87.6586L152.352 84.5959L158.358 84.6654L158.431 78.4336L152.425 78.3641L152.461 75.2943Z"/>
<path d="M146.778 134.754L144.046 137.378L134.359 133.146L134.236 133.264L138.15 143.039L135.418 145.664L125.295 135.24L127.445 133.176L134.033 139.96L134.12 139.877L130.293 130.539L131.757 129.133L141.033 133.288L141.12 133.204L134.507 126.394L136.656 124.33L146.778 134.754Z"/>
<path d="M112.602 142.364L117.911 155.882L108.78 159.428L107.855 157.072L114.121 154.638L112.856 151.417L107.059 153.668L106.134 151.312L111.93 149.061L110.663 145.833L104.37 148.277L103.445 145.921L112.602 142.364Z"/>
</svg>
