<svg viewBox="0 0 24 24" fill="none" xmlns="http://www.w3.org/2000/svg">
<path d="M20.7258 5.32694C21.215 3.57396 20.4812 1.65791 20.4405 1.53561C20.3182 1.25025 20.0328 1.00564 19.7067 1.00564C19.6251 1.00564 17.7499 0.842577 15.8746 2.26942C14.407 1.98405 12.7355 1.90252 12.654 1.90252C12.6132 1.90252 12.6132 1.90252 12.5725 1.90252C12.4909 1.90252 10.8195 1.98405 9.35187 2.26942C7.47659 0.842577 5.60131 1.00564 5.51978 1.00564C5.19364 1.04641 4.90827 1.25025 4.78597 1.53561C4.7452 1.61715 3.97063 3.57396 4.5006 5.32694C3.56296 6.63148 2.82916 8.34369 3.48143 11.4012C4.09293 14.1734 6.37588 15.7225 8.74036 16.2525C8.53653 16.8232 8.45499 17.5162 8.37346 18.25C7.39505 18.2908 6.78355 17.7201 5.92745 16.8232C5.19364 16.0486 4.3783 15.1518 3.03299 14.8664C2.58456 14.7441 2.13612 15.0295 2.01382 15.5187C1.93229 16.0079 2.21766 16.4563 2.70686 16.5378C3.48143 16.7009 4.0114 17.2716 4.66367 17.9647C5.51978 18.8616 6.49818 19.9623 8.25116 19.9623H8.29193C8.29193 20.8999 8.37346 21.7968 8.41423 22.5306C8.45499 23.0198 8.86266 23.3459 9.35187 23.3051C9.84107 23.2644 10.1672 22.8567 10.1264 22.3675C9.88184 19.5954 10.0857 16.6601 10.5341 16.2525C10.8602 16.0486 11.0641 15.6817 10.9418 15.2741C10.8602 14.9072 10.5341 14.6218 10.1264 14.6218C9.75954 14.6218 5.92745 14.418 5.19364 11.0343C4.58214 8.26216 5.35671 7.03915 6.17205 6.06074C6.37588 5.81614 6.41665 5.44924 6.29435 5.1231C5.96821 4.43007 6.09051 3.45166 6.25358 2.79939C6.82432 2.88092 7.68042 3.12552 8.57729 3.9001C8.78113 4.10393 9.0665 4.1447 9.35187 4.10393C10.6156 3.77779 12.3279 3.69626 12.6132 3.69626C12.8578 3.69626 14.6108 3.77779 15.8746 4.10393C16.1599 4.18546 16.4453 4.10393 16.6491 3.9001C17.546 3.12552 18.4429 2.88092 18.9729 2.79939C19.1359 3.41089 19.2582 4.3893 18.9321 5.1231C18.8098 5.40847 18.8506 5.77537 19.0544 6.06074C19.8697 7.03915 20.6035 8.26216 20.0328 11.0343C19.299 14.418 15.4669 14.6218 15.0185 14.6626C14.6108 14.6626 14.2847 14.9479 14.2031 15.3148C14.1216 15.6817 14.2847 16.0894 14.6108 16.2932C15.1 16.7009 15.3038 19.5954 15.0592 22.4083C15.0185 22.8975 15.3854 23.3051 15.8338 23.3459C15.8746 23.3459 15.8746 23.3459 15.9153 23.3459C16.3638 23.3459 16.7307 23.0198 16.7714 22.5713C16.9345 20.7776 17.0568 18.0054 16.4861 16.2525C18.8506 15.7633 21.1335 14.1734 21.745 11.4012C22.3973 8.34369 21.7042 6.63148 20.7258 5.32694Z"/>
</svg>
