<svg width="41" height="42" viewBox="0 0 41 42" fill="none" xmlns="http://www.w3.org/2000/svg">
<path d="M0 11.2165H30.2029C30.2029 11.2165 36.2435 10.7132 37.2502 10.2098C38.257 9.70637 39.2379 8.97821 39.7671 7.69285C40.2911 6.42043 39.7671 4.1692 39.7671 4.1692C39.3135 2.70239 38.7275 1.56732 37.2502 1.14891C35.8733 0.758897 35.2367 1.14893 33.7266 2.15567C32.2164 3.16241 30.2029 5.17596 30.2029 5.17596L4 31.5"/>
<path d="M0 31.2029H30.2029C30.2029 31.2029 36.2435 31.7062 37.2502 32.2096C38.257 32.713 39.2379 33.4412 39.7671 34.7265C40.2911 35.999 39.7671 38.2502 39.7671 38.2502C39.3135 39.717 38.7275 40.8521 37.2502 41.2705C35.8733 41.6605 35.2367 41.2705 33.7266 40.2637C32.2164 39.257 30.2029 37.2434 30.2029 37.2434L4 10.5"/>
<path d="M0 21.2841H30.2029" fill="#FFFFFF"/>
</svg>
