<svg width="24" height="24" viewBox="0 0 24 24" fill="none" xmlns="http://www.w3.org/2000/svg">
<path d="M1.07144 7.07274C1.1256 5.88937 1.31088 5.12617 1.56146 4.47834L1.56483 4.46939C1.81314 3.81015 2.20214 3.21296 2.70473 2.71935L2.71179 2.71242L2.71871 2.70537C3.21273 2.20213 3.81014 1.81351 4.4688 1.56586L4.48016 1.56152C5.12652 1.31015 5.88823 1.12555 7.07258 1.07141M1.07144 7.07274C1.01451 8.3371 1 8.72904 1 12.0073C1 15.2862 1.01371 15.6772 1.07141 16.9419M1.07144 7.07274V7.39167M7.07258 1.07141C8.33724 1.01371 8.72904 1 12.0072 1C15.2854 1 15.677 1.0145 16.9414 1.07142M7.07258 1.07141H7.39233M1.07141 16.9419C1.12555 18.1263 1.31015 18.888 1.56152 19.5343L1.56586 19.5458M1.07141 16.9419L1.0908 17.044M1.07141 16.9419V16.6222M1.07144 7.39167C1.07587 7.29034 1.08064 7.18472 1.08574 7.07239C1.14508 5.77764 1.36519 5.02114 1.57499 4.48457C1.84651 3.78383 2.19047 3.25507 2.71594 2.72742C3.21541 2.21505 3.8226 1.82022 4.4935 1.57151C5.02769 1.36432 5.78219 1.14488 7.07206 1.08575C7.18474 1.08064 7.29069 1.07585 7.39233 1.07141M1.07144 7.39167C1.02458 8.46314 1.01451 9.05421 1.01451 12.0073C1.01451 14.9593 1.02458 15.5513 1.07141 16.6222M1.07144 7.39167L1.07141 16.6222M1.56586 19.5458C1.81351 20.2044 2.20213 20.8017 2.70537 21.2958L2.71241 21.3028L2.71932 21.3097C3.21296 21.8123 3.81018 22.2014 4.46941 22.4497L4.47925 22.4534C5.1262 22.7043 5.88828 22.889 7.07258 22.9431M1.56586 19.5458L1.55102 19.4675M1.55102 19.4675L1.0908 17.044M1.55102 19.4675C1.35555 18.9512 1.15429 18.2306 1.0908 17.044M1.55102 19.4675C1.55787 19.4857 1.56472 19.5035 1.57156 19.5211C1.81943 20.1893 2.21218 20.7944 2.72158 21.2928C3.21981 21.8022 3.82465 22.1948 4.49266 22.4427C5.02874 22.6515 5.78413 22.8697 7.07239 22.9288C8.37247 22.988 8.77413 23 12.0072 23C15.2404 23 15.6424 22.988 16.9425 22.9288C18.2323 22.8696 18.9868 22.6502 19.521 22.4431C20.1894 22.1953 20.7946 21.8024 21.293 21.2928C21.8022 20.7946 22.1948 20.1898 22.4427 19.5218C22.6515 18.9857 22.8698 18.2304 22.9287 16.9421C22.9879 15.642 23 15.2396 23 12.0073C23 8.77494 22.9879 8.37213 22.9287 7.07206C22.8693 5.77547 22.6479 5.01984 22.4397 4.48517C22.1676 3.78268 21.8226 3.25138 21.2921 2.72094C20.7628 2.19262 20.2329 1.84734 19.5298 1.57494C18.9933 1.36517 18.2372 1.1451 16.9425 1.08575C16.8298 1.08064 16.724 1.07587 16.6225 1.07142M1.0908 17.044C1.08901 17.0106 1.08733 16.9767 1.08575 16.9425C1.08064 16.8298 1.07585 16.7239 1.07141 16.6222M16.6225 1.07142H16.9414M16.6225 1.07142L7.39233 1.07141M16.6225 1.07142C15.5514 1.02459 14.9596 1.01451 12.0072 1.01451C9.05511 1.01451 8.46322 1.02458 7.39233 1.07141M16.9414 1.07142C18.125 1.12556 18.8882 1.31083 19.5362 1.56143L19.5451 1.56483C20.2043 1.81314 20.8015 2.20214 21.2952 2.70473L21.302 2.71172L21.309 2.71857C21.8117 3.21222 22.2006 3.80959 22.4488 4.46901L22.4529 4.48016C22.7043 5.12652 22.889 5.88823 22.9431 7.07258M22.9431 16.9419C22.889 18.1262 22.7043 18.8883 22.4534 19.5352L22.4497 19.5451C22.2013 20.2044 21.8124 20.8015 21.3097 21.2951L21.3027 21.3021L21.2958 21.3091C20.8018 21.8123 20.2044 22.2009 19.5457 22.4486L19.5343 22.453C18.888 22.7044 18.1262 22.889 16.9419 22.9431M10.0496 16.7336C10.6702 16.9906 11.3354 17.123 12.0072 17.123C13.364 17.123 14.6653 16.584 15.6247 15.6247C16.584 14.6652 17.123 13.364 17.123 12.0073C17.123 10.6505 16.584 9.34925 15.6247 8.38986C14.6653 7.43047 13.364 6.89148 12.0072 6.89148C11.3354 6.89148 10.6702 7.02381 10.0496 7.28091C9.42881 7.53799 8.86491 7.91482 8.38987 8.38986C7.91483 8.86491 7.53801 9.42886 7.28091 10.0495C7.02382 10.6702 6.8915 11.3355 6.8915 12.0073C6.8915 12.6791 7.02382 13.3443 7.28091 13.9649C7.53801 14.5857 7.91483 15.1496 8.38987 15.6247C8.86491 16.0996 9.42881 16.4765 10.0496 16.7336ZM8.37848 8.37846C9.34093 7.41604 10.6462 6.87537 12.0072 6.87537C13.3683 6.87537 14.6736 7.41604 15.6361 8.37846C16.5985 9.34088 17.1391 10.6462 17.1391 12.0073C17.1391 13.3683 16.5985 14.6736 15.6361 15.636C14.6736 16.5985 13.3683 17.1391 12.0072 17.1391C10.6462 17.1391 9.34093 16.5985 8.37848 15.636C7.41606 14.6736 6.87538 13.3683 6.87538 12.0073C6.87538 10.6462 7.41606 9.34088 8.37848 8.37846ZM20.0289 5.68055C20.0289 6.07011 19.8741 6.44371 19.5987 6.71918C19.3233 6.99464 18.9496 7.14939 18.5601 7.14939C18.1705 7.14939 17.7969 6.99464 17.5215 6.71918C17.246 6.44371 17.0912 6.07011 17.0912 5.68055C17.0912 5.29098 17.246 4.91738 17.5215 4.64193C17.7969 4.36646 18.1705 4.21171 18.5601 4.21171C18.9496 4.21171 19.3233 4.36646 19.5987 4.64193C19.8741 4.91738 20.0289 5.29098 20.0289 5.68055Z" stroke-width="2" stroke-linejoin="round"/>
</svg>
