<svg width="24" height="24" viewBox="0 0 24 24" fill="none" xmlns="http://www.w3.org/2000/svg">
<path fill-rule="evenodd" clip-rule="evenodd" d="M22 21H18V14.001C18 12.081 17.153 11.0098 15.634 11.0098C13.981 11.0098 13 12.126 13 14.001V21H9V8H13V9.46191C13 9.46191 14.255 7.25977 17.083 7.25977C19.912 7.25977 22 8.98611 22 12.5581V21ZM4.442 5.9209C3.093 5.9209 2 4.81896 2 3.45996C2 2.10196 3.093 1 4.442 1C5.79 1 6.883 2.10196 6.883 3.45996C6.884 4.81896 5.79 5.9209 4.442 5.9209ZM2 21H7V8H2V21Z"/>
</svg>
