<svg width="78" height="15" viewBox="0 0 78 15" fill="none" xmlns="http://www.w3.org/2000/svg">
<path d="M0 14.5455V0H5.73864C6.84186 0 7.78172 0.210701 8.55824 0.632102C9.33475 1.04877 9.92661 1.62879 10.3338 2.37216C10.7457 3.1108 10.9517 3.96307 10.9517 4.92898C10.9517 5.89489 10.7434 6.74716 10.3267 7.4858C9.91004 8.22443 9.30634 8.79972 8.51562 9.21165C7.72964 9.62358 6.77794 9.82955 5.66051 9.82955H2.00284V7.36506H5.16335C5.75521 7.36506 6.2429 7.26326 6.62642 7.05966C7.01468 6.85133 7.3035 6.56487 7.4929 6.20028C7.68703 5.83097 7.78409 5.4072 7.78409 4.92898C7.78409 4.44602 7.68703 4.02462 7.4929 3.66477C7.3035 3.30019 7.01468 3.01847 6.62642 2.8196C6.23816 2.616 5.74574 2.5142 5.14915 2.5142H3.07528V14.5455H0Z"/>
<path d="M15.7102 14.7514C15.0142 14.7514 14.3939 14.6307 13.8494 14.3892C13.3049 14.143 12.8741 13.7808 12.5568 13.3026C12.2443 12.8196 12.0881 12.2183 12.0881 11.4986C12.0881 10.8925 12.1993 10.3835 12.4219 9.97159C12.6444 9.55966 12.9474 9.22822 13.331 8.97727C13.7145 8.72633 14.1501 8.53693 14.6378 8.40909C15.1302 8.28125 15.6463 8.19129 16.1861 8.1392C16.8206 8.07292 17.3319 8.01136 17.7202 7.95455C18.1084 7.89299 18.3902 7.80303 18.5653 7.68466C18.7405 7.56629 18.8281 7.3911 18.8281 7.15909V7.11648C18.8281 6.66667 18.6861 6.31866 18.402 6.07244C18.1226 5.82623 17.7249 5.70312 17.2088 5.70312C16.6643 5.70312 16.2311 5.82386 15.9091 6.06534C15.5871 6.30208 15.3741 6.60038 15.2699 6.96023L12.4716 6.73295C12.6136 6.07008 12.893 5.49716 13.3097 5.0142C13.7263 4.52652 14.2637 4.15246 14.9219 3.89205C15.5848 3.62689 16.3518 3.49432 17.223 3.49432C17.8291 3.49432 18.4091 3.56534 18.9631 3.70739C19.5218 3.84943 20.0166 4.0696 20.4474 4.3679C20.8831 4.66619 21.2263 5.04972 21.4773 5.51847C21.7282 5.98248 21.8537 6.53883 21.8537 7.1875V14.5455H18.9844V13.0327H18.8991C18.724 13.3736 18.4896 13.6742 18.196 13.9347C17.9025 14.1903 17.5497 14.3916 17.1378 14.5384C16.7259 14.6804 16.25 14.7514 15.7102 14.7514ZM16.5767 12.6634C17.0218 12.6634 17.4148 12.5758 17.7557 12.4006C18.0966 12.2206 18.3641 11.9792 18.5582 11.6761C18.7524 11.3731 18.8494 11.0298 18.8494 10.6463V9.48864C18.7547 9.55019 18.6245 9.60701 18.4588 9.65909C18.2978 9.70644 18.1155 9.75142 17.9119 9.79403C17.7083 9.83191 17.5047 9.86742 17.3011 9.90057C17.0975 9.92898 16.9129 9.95502 16.7472 9.97869C16.392 10.0308 16.0819 10.1136 15.8168 10.2273C15.5516 10.3409 15.3456 10.4948 15.1989 10.6889C15.0521 10.8783 14.9787 11.1151 14.9787 11.3991C14.9787 11.8111 15.1278 12.1259 15.4261 12.3438C15.7292 12.5568 16.1127 12.6634 16.5767 12.6634Z"/>
<path d="M33.9808 3.63636L30.1669 14.5455H26.7578L22.9439 3.63636H26.1399L28.4055 11.4418H28.5192L30.7777 3.63636H33.9808Z"/>
<path d="M40.1491 14.7585C39.027 14.7585 38.0611 14.5313 37.2514 14.0767C36.4465 13.6174 35.8262 12.9688 35.3906 12.1307C34.955 11.2879 34.7372 10.2912 34.7372 9.14062C34.7372 8.01847 34.955 7.03362 35.3906 6.18608C35.8262 5.33854 36.4394 4.67803 37.2301 4.20455C38.0256 3.73106 38.9583 3.49432 40.0284 3.49432C40.7481 3.49432 41.4181 3.61032 42.0383 3.84233C42.6633 4.0696 43.2079 4.41288 43.6719 4.87216C44.1406 5.33144 44.5052 5.90909 44.7656 6.60511C45.026 7.2964 45.1562 8.10606 45.1562 9.03409V9.86506H35.9446V7.99006H42.3082C42.3082 7.55445 42.2135 7.16856 42.0241 6.83239C41.8348 6.49621 41.572 6.23343 41.2358 6.04403C40.9044 5.84991 40.5185 5.75284 40.0781 5.75284C39.6188 5.75284 39.2116 5.85938 38.8565 6.07244C38.5062 6.28078 38.2315 6.5625 38.0327 6.91761C37.8338 7.26799 37.732 7.65862 37.7273 8.08949V9.87216C37.7273 10.4119 37.8267 10.8783 38.0256 11.2713C38.2292 11.6643 38.5156 11.9673 38.8849 12.1804C39.2543 12.3935 39.6922 12.5 40.1989 12.5C40.535 12.5 40.8428 12.4527 41.1222 12.358C41.4015 12.2633 41.6406 12.1212 41.8395 11.9318C42.0384 11.7424 42.1899 11.5104 42.294 11.2358L45.0923 11.4205C44.9503 12.0928 44.6591 12.6799 44.2188 13.1818C43.7831 13.679 43.2197 14.0672 42.5284 14.3466C41.8419 14.6212 41.0488 14.7585 40.1491 14.7585Z"/>
<path d="M50.1562 0V14.5455H47.1307V0H50.1562Z"/>
<path d="M57.2656 14.5455V0H60.3409V6.41335H60.5327L65.767 0H69.4531L64.0554 6.51278L69.517 14.5455H65.8381L61.8537 8.56534L60.3409 10.4119V14.5455H57.2656Z"/>
<path d="M75.1996 14.8224C74.4965 14.8224 73.8928 14.5739 73.3885 14.0767C72.8913 13.5724 72.6428 12.9687 72.6428 12.2656C72.6428 11.5696 72.8913 10.973 73.3885 10.4758C73.8928 9.97868 74.4965 9.7301 75.1996 9.7301C75.8814 9.7301 76.478 9.97868 76.9894 10.4758C77.5007 10.973 77.7564 11.5696 77.7564 12.2656C77.7564 12.7344 77.6357 13.1641 77.3942 13.5547C77.1598 13.9382 76.8509 14.2471 76.4673 14.4815C76.0838 14.7088 75.6612 14.8224 75.1996 14.8224Z" fill="#C80000"/>
</svg>
