<svg viewBox="0 0 173 28" fill="none" xmlns="http://www.w3.org/2000/svg">
<path fill-rule="evenodd" clip-rule="evenodd" d="M4.60868 0H0V28H4.60868V0ZM25.0548 3.6225V24.0625H29.1514V16.2225H33.0186C34.6136 16.2225 36.0009 15.9612 37.1808 15.4385C38.3606 14.9158 39.2782 14.1785 39.9337 13.2265C40.611 12.2745 40.9496 11.1732 40.9496 9.9225C40.9496 8.65317 40.6219 7.55183 39.9664 6.6185C39.311 5.6665 38.3824 4.92917 37.1808 4.4065C36.0009 3.88383 34.6136 3.6225 33.0186 3.6225H25.0548ZM33.0186 13.0585H29.1514V6.7865H33.0186C34.1547 6.7865 35.0614 7.0665 35.7388 7.6265C36.4379 8.1865 36.7875 8.95183 36.7875 9.9225C36.7875 10.8745 36.4379 11.6398 35.7388 12.2185C35.0614 12.7785 34.1547 13.0585 33.0186 13.0585ZM45.6233 23.0825C46.6939 23.9225 48.1578 24.3425 50.0149 24.3425C51.6535 24.3425 52.9644 24.0065 53.9476 23.3345C54.7023 22.8187 55.1674 22.1653 55.3428 21.3745H55.4224V24.0625H59.3879V13.6185C59.3879 12.0132 58.7434 10.7438 57.4543 9.8105C56.1871 8.8585 54.4501 8.3825 52.2434 8.3825C50.1678 8.3825 48.4636 8.81183 47.1309 9.6705C45.7981 10.5292 45.0334 11.6865 44.8368 13.1425H48.8351C48.9443 12.5638 49.2939 12.1065 49.8838 11.7705C50.4737 11.4345 51.2166 11.2665 52.1124 11.2665C53.0955 11.2665 53.8712 11.4812 54.4392 11.9105C55.0073 12.3212 55.2913 12.8998 55.2913 13.6465V14.9625H50.8014C48.6384 14.9625 46.967 15.3732 45.7872 16.1945C44.6074 17.0158 44.0175 18.1825 44.0175 19.6945C44.0175 21.1132 44.5528 22.2425 45.6233 23.0825ZM54.177 20.9545C53.456 21.4585 52.5166 21.7105 51.3586 21.7105C50.3535 21.7105 49.5561 21.5052 48.9662 21.0945C48.3981 20.6652 48.1141 20.0865 48.1141 19.3585C48.1141 18.6865 48.3653 18.1452 48.8678 17.7345C49.3704 17.3238 50.0367 17.1185 50.867 17.1185H55.2913V18.9945C55.2913 19.7972 54.9199 20.4505 54.177 20.9545ZM63.1112 8.6625L69.0431 24.0625H74.3195L80.2186 8.6625H76.0565L72.6809 18.0425C72.5061 18.5838 72.3313 19.1532 72.1565 19.7505C71.9817 20.3478 71.8397 20.8238 71.7305 21.1785C71.6431 20.8238 71.5011 20.3478 71.3044 19.7505C71.1296 19.1532 70.9439 18.5745 70.7473 18.0145L67.3061 8.6625H63.1112ZM87.3503 23.5865C88.4864 24.0905 89.8192 24.3425 91.3486 24.3425C93.2712 24.3425 94.899 23.9505 96.2317 23.1665C97.5863 22.3638 98.4166 21.2998 98.7225 19.9745H94.6914C94.5385 20.4972 94.178 20.8985 93.6099 21.1785C93.0418 21.4398 92.299 21.5705 91.3814 21.5705C90.1797 21.5705 89.273 21.2998 88.6612 20.7585C88.0495 20.1985 87.7436 19.3772 87.7436 18.2945V17.2025H98.8536V14.4305C98.8536 13.2172 98.5368 12.1625 97.9031 11.2665C97.2914 10.3518 96.4174 9.6425 95.2813 9.1385C94.167 8.6345 92.8561 8.3825 91.3486 8.3825C89.8192 8.3825 88.4864 8.6345 87.3503 9.1385C86.2142 9.6425 85.3293 10.3518 84.6957 11.2665C84.0839 12.1625 83.7781 13.2172 83.7781 14.4305V18.2945C83.7781 19.5078 84.0839 20.5718 84.6957 21.4865C85.3293 22.3825 86.2142 23.0825 87.3503 23.5865ZM94.888 14.9647V14.4025C94.888 13.3385 94.5931 12.5265 94.0032 11.9665C93.4133 11.3878 92.5284 11.0985 91.3486 11.0985C90.1688 11.0985 89.273 11.3878 88.6612 11.9665C88.0495 12.5452 87.7436 13.3665 87.7436 14.4305V15.0185L94.888 14.9647ZM110.606 23.4465C111.502 23.8572 112.54 24.0625 113.72 24.0625H119.455V20.8985H114.015C113.359 20.8985 112.835 20.7398 112.441 20.4225C112.07 20.0865 111.884 19.6385 111.884 19.0785V3.6225H102.02V6.7865H107.788V19.0785C107.788 20.0678 108.039 20.9452 108.542 21.7105C109.044 22.4572 109.732 23.0358 110.606 23.4465ZM142.927 3.6225V24.0625H147.024V15.0745H149.81L154.529 24.0625H159.084L153.48 13.4225L158.822 3.6225H154.365L149.875 11.8825H147.024V3.6225H142.927ZM167.658 23.6425C168.226 24.1092 168.98 24.3425 169.919 24.3425C170.859 24.3425 171.602 24.1092 172.148 23.6425C172.716 23.1758 173 22.5412 173 21.7385C173 20.9358 172.716 20.3012 172.148 19.8345C171.602 19.3492 170.859 19.1065 169.919 19.1065C168.98 19.1065 168.226 19.3492 167.658 19.8345C167.112 20.3012 166.839 20.9358 166.839 21.7385C166.839 22.5412 167.112 23.1758 167.658 23.6425Z" fill="#fff"/>
</svg>
