<svg width="25" height="36" viewBox="0 0 25 36" xmlns="http://www.w3.org/2000/svg">
<path fill-rule="evenodd" clip-rule="evenodd" d="M13 1H12C5.92487 1 1 5.92487 1 12V24C1 30.0751 5.92487 35 12 35H13C19.0751 35 24 30.0751 24 24V12C24 5.92487 19.0751 1 13 1ZM12 0C5.37258 0 0 5.37258 0 12V24C0 30.6274 5.37258 36 12 36H13C19.6274 36 25 30.6274 25 24V12C25 5.37258 19.6274 0 13 0H12Z"/>
<path d="M12 6.5C12 6.22386 12.2239 6 12.5 6C12.7761 6 13 6.22386 13 6.5V10.5C13 10.7761 12.7761 11 12.5 11C12.2239 11 12 10.7761 12 10.5V6.5Z"/>
</svg>
