<svg viewBox="0 0 25 25" fill="none" xmlns="http://www.w3.org/2000/svg">
<path d="M6.40156 0.903125C7.31485 2.1625 8.40391 3.78906 9.66328 5.77578C9.98047 6.31328 9.93203 6.95703 9.52188 7.71406C9.36563 8.03125 8.97031 8.75391 8.34063 9.89141C9.0336 10.868 10.0891 12.0687 11.5094 13.4852C12.9297 14.9016 14.1117 15.9609 15.0547 16.6539C16.1875 15.9898 16.9148 15.5844 17.2328 15.4234C17.643 15.2039 18.0383 15.0914 18.4141 15.0914C18.6977 15.0914 18.9516 15.1547 19.1711 15.282C20.6211 16.1656 22.2617 17.2547 24.0883 18.5438C24.4352 18.7977 24.6305 19.1445 24.6789 19.5836C24.7281 20.0281 24.5906 20.4969 24.2789 21.0047C24.1227 21.2242 23.8688 21.5469 23.5219 21.9766C23.175 22.4016 22.6523 22.9383 21.9594 23.5828C21.2664 24.2273 20.6992 24.5547 20.2555 24.5547H20.2063C16.8711 24.4227 12.7602 21.9227 7.89219 17.0547C3.01953 12.1812 0.518752 8.075 0.392189 4.73516C0.392189 4.29531 0.714064 3.71953 1.36406 3.00703C2.0086 2.29922 2.54063 1.78594 2.9461 1.46875C3.35625 1.15625 3.70313 0.902344 3.98594 0.711719C4.33281 0.457813 4.72813 0.335938 5.16797 0.335938C5.71016 0.335938 6.11485 0.526562 6.40313 0.902344L6.40156 0.903125ZM4.83906 1.89453C4.175 2.36797 3.55469 2.9 2.96875 3.48125C2.3875 4.06719 2.0461 4.49688 1.95313 4.77969C2.08047 7.71406 4.41875 11.4492 8.975 15.9906C13.5313 20.532 17.2758 22.8805 20.2055 23.0367C20.4594 22.9437 20.8742 22.5969 21.4602 21.9969C22.0461 21.3969 22.5734 20.7664 23.0422 20.107C23.1352 19.9797 23.1695 19.8727 23.1352 19.775C21.2453 18.4516 19.668 17.3969 18.4039 16.6063C18.2766 16.6063 18.1203 16.6555 17.9305 16.7477C17.6469 16.9039 16.9391 17.2992 15.8016 17.9289L14.9961 18.4023L14.1906 17.8797C13.1508 17.157 11.8906 16.0336 10.4063 14.5203C8.92656 13.0406 7.82344 11.7766 7.09531 10.7359L6.52891 9.97891L7.00235 9.12891C7.63203 7.99609 8.02813 7.28281 8.1836 7C8.27656 6.80937 8.325 6.65313 8.325 6.52656C7.20156 4.73438 6.16172 3.15703 5.21485 1.8H5.16563C5.04375 1.8 4.93125 1.83438 4.83828 1.89297L4.83906 1.89453Z"/>
</svg>
