<svg viewBox="0 0 500 60" fill="none" xmlns="http://www.w3.org/2000/svg">
<path d="M13.3182 46.5455L0 0H10.75L18.4545 32.3409H18.8409L27.3409 0H36.5455L45.0227 32.4091H45.4318L53.1364 0H63.8864L50.5682 46.5455H40.9773L32.1136 16.1136H31.75L22.9091 46.5455H13.3182Z" fill="white"/>
<path d="M81.1307 47.2273C77.5398 47.2273 74.4489 46.5 71.858 45.0455C69.2822 43.5758 67.2974 41.5 65.9034 38.8182C64.5095 36.1212 63.8125 32.9318 63.8125 29.25C63.8125 25.6591 64.5095 22.5076 65.9034 19.7955C67.2974 17.0833 69.2595 14.9697 71.7898 13.4545C74.3352 11.9394 77.3201 11.1818 80.7443 11.1818C83.0474 11.1818 85.1913 11.553 87.1761 12.2955C89.1761 13.0227 90.9186 14.1212 92.4034 15.5909C93.9034 17.0606 95.0701 18.9091 95.9034 21.1364C96.7367 23.3485 97.1534 25.9394 97.1534 28.9091V31.5682H67.6761V25.5682H88.0398C88.0398 24.1742 87.7367 22.9394 87.1307 21.8636C86.5246 20.7879 85.6837 19.947 84.608 19.3409C83.5474 18.7197 82.3125 18.4091 80.9034 18.4091C79.4337 18.4091 78.1307 18.75 76.9943 19.4318C75.8731 20.0985 74.9943 21 74.358 22.1364C73.7216 23.2576 73.3958 24.5076 73.3807 25.8864V31.5909C73.3807 33.3182 73.6989 34.8106 74.3352 36.0682C74.9867 37.3258 75.9034 38.2955 77.0852 38.9773C78.267 39.6591 79.6686 40 81.2898 40C82.3655 40 83.3504 39.8485 84.2443 39.5455C85.1383 39.2424 85.9034 38.7879 86.5398 38.1818C87.1761 37.5758 87.661 36.8333 87.9943 35.9545L96.9489 36.5455C96.4943 38.697 95.5625 40.5758 94.1534 42.1818C92.7595 43.7727 90.9564 45.0152 88.7443 45.9091C86.5474 46.7879 84.0095 47.2273 81.1307 47.2273Z" fill="white"/>
<path d="M103.653 46.5455V0H113.335V17.5H113.631C114.055 16.5606 114.669 15.6061 115.472 14.6364C116.29 13.6515 117.35 12.8333 118.653 12.1818C119.972 11.5152 121.608 11.1818 123.562 11.1818C126.108 11.1818 128.456 11.8485 130.608 13.1818C132.759 14.5 134.479 16.4924 135.767 19.1591C137.055 21.8106 137.699 25.1364 137.699 29.1364C137.699 33.0303 137.07 36.3182 135.812 39C134.57 41.6667 132.873 43.6894 130.722 45.0682C128.585 46.4318 126.191 47.1136 123.54 47.1136C121.661 47.1136 120.063 46.803 118.744 46.1818C117.441 45.5606 116.373 44.7803 115.54 43.8409C114.706 42.8864 114.07 41.9242 113.631 40.9545H113.199V46.5455H103.653ZM113.131 29.0909C113.131 31.1667 113.419 32.9773 113.994 34.5227C114.57 36.0682 115.403 37.2727 116.494 38.1364C117.585 38.9848 118.911 39.4091 120.472 39.4091C122.047 39.4091 123.381 38.9773 124.472 38.1136C125.563 37.2349 126.388 36.0227 126.949 34.4773C127.525 32.9167 127.812 31.1212 127.812 29.0909C127.812 27.0758 127.532 25.303 126.972 23.7727C126.411 22.2424 125.585 21.0455 124.494 20.1818C123.403 19.3182 122.063 18.8864 120.472 18.8864C118.896 18.8864 117.562 19.303 116.472 20.1364C115.396 20.9697 114.57 22.1515 113.994 23.6818C113.419 25.2121 113.131 27.0152 113.131 29.0909Z" fill="white"/>
<path d="M171.835 47.1136C169.184 47.1136 166.782 46.4318 164.631 45.0682C162.494 43.6894 160.797 41.6667 159.54 39C158.297 36.3182 157.676 33.0303 157.676 29.1364C157.676 25.1364 158.32 21.8106 159.608 19.1591C160.896 16.4924 162.608 14.5 164.744 13.1818C166.896 11.8485 169.252 11.1818 171.812 11.1818C173.767 11.1818 175.396 11.5152 176.699 12.1818C178.017 12.8333 179.078 13.6515 179.881 14.6364C180.699 15.6061 181.32 16.5606 181.744 17.5H182.04V0H191.699V46.5455H182.153V40.9545H181.744C181.29 41.9242 180.646 42.8864 179.812 43.8409C178.994 44.7803 177.926 45.5606 176.608 46.1818C175.305 46.803 173.714 47.1136 171.835 47.1136ZM174.903 39.4091C176.464 39.4091 177.782 38.9848 178.858 38.1364C179.949 37.2727 180.782 36.0682 181.358 34.5227C181.949 32.9773 182.244 31.1667 182.244 29.0909C182.244 27.0152 181.956 25.2121 181.381 23.6818C180.805 22.1515 179.972 20.9697 178.881 20.1364C177.79 19.303 176.464 18.8864 174.903 18.8864C173.313 18.8864 171.972 19.3182 170.881 20.1818C169.79 21.0455 168.964 22.2424 168.403 23.7727C167.843 25.303 167.562 27.0758 167.562 29.0909C167.562 31.1212 167.843 32.9167 168.403 34.4773C168.979 36.0227 169.805 37.2349 170.881 38.1136C171.972 38.9773 173.313 39.4091 174.903 39.4091Z" fill="white"/>
<path d="M215.568 47.2273C211.977 47.2273 208.886 46.5 206.295 45.0455C203.72 43.5758 201.735 41.5 200.341 38.8182C198.947 36.1212 198.25 32.9318 198.25 29.25C198.25 25.6591 198.947 22.5076 200.341 19.7955C201.735 17.0833 203.697 14.9697 206.227 13.4545C208.773 11.9394 211.758 11.1818 215.182 11.1818C217.485 11.1818 219.629 11.553 221.614 12.2955C223.614 13.0227 225.356 14.1212 226.841 15.5909C228.341 17.0606 229.508 18.9091 230.341 21.1364C231.174 23.3485 231.591 25.9394 231.591 28.9091V31.5682H202.114V25.5682H222.477C222.477 24.1742 222.174 22.9394 221.568 21.8636C220.962 20.7879 220.121 19.947 219.045 19.3409C217.985 18.7197 216.75 18.4091 215.341 18.4091C213.871 18.4091 212.568 18.75 211.432 19.4318C210.311 20.0985 209.432 21 208.795 22.1364C208.159 23.2576 207.833 24.5076 207.818 25.8864V31.5909C207.818 33.3182 208.136 34.8106 208.773 36.0682C209.424 37.3258 210.341 38.2955 211.523 38.9773C212.705 39.6591 214.106 40 215.727 40C216.803 40 217.788 39.8485 218.682 39.5455C219.576 39.2424 220.341 38.7879 220.977 38.1818C221.614 37.5758 222.098 36.8333 222.432 35.9545L231.386 36.5455C230.932 38.697 230 40.5758 228.591 42.1818C227.197 43.7727 225.394 45.0152 223.182 45.9091C220.985 46.7879 218.447 47.2273 215.568 47.2273Z" fill="white"/>
<path d="M269.517 11.6364L257.312 46.5455H246.403L234.199 11.6364H244.426L251.676 36.6136H252.04L259.267 11.6364H269.517Z" fill="white"/>
<path d="M289.256 47.2273C285.665 47.2273 282.574 46.5 279.983 45.0455C277.407 43.5758 275.422 41.5 274.028 38.8182C272.634 36.1212 271.938 32.9318 271.938 29.25C271.938 25.6591 272.634 22.5076 274.028 19.7955C275.422 17.0833 277.384 14.9697 279.915 13.4545C282.46 11.9394 285.445 11.1818 288.869 11.1818C291.172 11.1818 293.316 11.553 295.301 12.2955C297.301 13.0227 299.044 14.1212 300.528 15.5909C302.028 17.0606 303.195 18.9091 304.028 21.1364C304.862 23.3485 305.278 25.9394 305.278 28.9091V31.5682H275.801V25.5682H296.165C296.165 24.1742 295.862 22.9394 295.256 21.8636C294.65 20.7879 293.809 19.947 292.733 19.3409C291.672 18.7197 290.438 18.4091 289.028 18.4091C287.559 18.4091 286.256 18.75 285.119 19.4318C283.998 20.0985 283.119 21 282.483 22.1364C281.847 23.2576 281.521 24.5076 281.506 25.8864V31.5909C281.506 33.3182 281.824 34.8106 282.46 36.0682C283.112 37.3258 284.028 38.2955 285.21 38.9773C286.392 39.6591 287.794 40 289.415 40C290.491 40 291.475 39.8485 292.369 39.5455C293.263 39.2424 294.028 38.7879 294.665 38.1818C295.301 37.5758 295.786 36.8333 296.119 35.9545L305.074 36.5455C304.619 38.697 303.688 40.5758 302.278 42.1818C300.884 43.7727 299.081 45.0152 296.869 45.9091C294.672 46.7879 292.134 47.2273 289.256 47.2273Z" fill="white"/>
<path d="M321.278 0V46.5455H311.597V0H321.278Z" fill="white"/>
<path d="M344.807 47.2273C341.276 47.2273 338.223 46.4773 335.648 44.9773C333.087 43.4621 331.11 41.3561 329.716 38.6591C328.322 35.947 327.625 32.803 327.625 29.2273C327.625 25.6212 328.322 22.4697 329.716 19.7727C331.11 17.0606 333.087 14.9545 335.648 13.4545C338.223 11.9394 341.276 11.1818 344.807 11.1818C348.337 11.1818 351.383 11.9394 353.943 13.4545C356.519 14.9545 358.504 17.0606 359.898 19.7727C361.292 22.4697 361.989 25.6212 361.989 29.2273C361.989 32.803 361.292 35.947 359.898 38.6591C358.504 41.3561 356.519 43.4621 353.943 44.9773C351.383 46.4773 348.337 47.2273 344.807 47.2273ZM344.852 39.7273C346.458 39.7273 347.799 39.2727 348.875 38.3636C349.951 37.4394 350.761 36.1818 351.307 34.5909C351.867 33 352.148 31.1894 352.148 29.1591C352.148 27.1288 351.867 25.3182 351.307 23.7273C350.761 22.1364 349.951 20.8788 348.875 19.9545C347.799 19.0303 346.458 18.5682 344.852 18.5682C343.231 18.5682 341.867 19.0303 340.761 19.9545C339.67 20.8788 338.845 22.1364 338.284 23.7273C337.739 25.3182 337.466 27.1288 337.466 29.1591C337.466 31.1894 337.739 33 338.284 34.5909C338.845 36.1818 339.67 37.4394 340.761 38.3636C341.867 39.2727 343.231 39.7273 344.852 39.7273Z" fill="white"/>
<path d="M368.284 59.6364V11.6364H377.83V17.5H378.261C378.686 16.5606 379.299 15.6061 380.102 14.6364C380.92 13.6515 381.981 12.8333 383.284 12.1818C384.602 11.5152 386.239 11.1818 388.193 11.1818C390.739 11.1818 393.087 11.8485 395.239 13.1818C397.39 14.5 399.11 16.4924 400.398 19.1591C401.686 21.8106 402.33 25.1364 402.33 29.1364C402.33 33.0303 401.701 36.3182 400.443 39C399.201 41.6667 397.504 43.6894 395.352 45.0682C393.216 46.4318 390.822 47.1136 388.17 47.1136C386.292 47.1136 384.693 46.803 383.375 46.1818C382.072 45.5606 381.004 44.7803 380.17 43.8409C379.337 42.8864 378.701 41.9242 378.261 40.9545H377.966V59.6364H368.284ZM377.761 29.0909C377.761 31.1667 378.049 32.9773 378.625 34.5227C379.201 36.0682 380.034 37.2727 381.125 38.1364C382.216 38.9848 383.542 39.4091 385.102 39.4091C386.678 39.4091 388.011 38.9773 389.102 38.1136C390.193 37.2349 391.019 36.0227 391.58 34.4773C392.155 32.9167 392.443 31.1212 392.443 29.0909C392.443 27.0758 392.163 25.303 391.602 23.7727C391.042 22.2424 390.216 21.0455 389.125 20.1818C388.034 19.3182 386.693 18.8864 385.102 18.8864C383.527 18.8864 382.193 19.303 381.102 20.1364C380.027 20.9697 379.201 22.1515 378.625 23.6818C378.049 25.2121 377.761 27.0152 377.761 29.0909Z" fill="white"/>
<path d="M424.693 47.2273C421.102 47.2273 418.011 46.5 415.42 45.0455C412.845 43.5758 410.86 41.5 409.466 38.8182C408.072 36.1212 407.375 32.9318 407.375 29.25C407.375 25.6591 408.072 22.5076 409.466 19.7955C410.86 17.0833 412.822 14.9697 415.352 13.4545C417.898 11.9394 420.883 11.1818 424.307 11.1818C426.61 11.1818 428.754 11.553 430.739 12.2955C432.739 13.0227 434.481 14.1212 435.966 15.5909C437.466 17.0606 438.633 18.9091 439.466 21.1364C440.299 23.3485 440.716 25.9394 440.716 28.9091V31.5682H411.239V25.5682H431.602C431.602 24.1742 431.299 22.9394 430.693 21.8636C430.087 20.7879 429.246 19.947 428.17 19.3409C427.11 18.7197 425.875 18.4091 424.466 18.4091C422.996 18.4091 421.693 18.75 420.557 19.4318C419.436 20.0985 418.557 21 417.92 22.1364C417.284 23.2576 416.958 24.5076 416.943 25.8864V31.5909C416.943 33.3182 417.261 34.8106 417.898 36.0682C418.549 37.3258 419.466 38.2955 420.648 38.9773C421.83 39.6591 423.231 40 424.852 40C425.928 40 426.913 39.8485 427.807 39.5455C428.701 39.2424 429.466 38.7879 430.102 38.1818C430.739 37.5758 431.223 36.8333 431.557 35.9545L440.511 36.5455C440.057 38.697 439.125 40.5758 437.716 42.1818C436.322 43.7727 434.519 45.0152 432.307 45.9091C430.11 46.7879 427.572 47.2273 424.693 47.2273Z" fill="white"/>
<path d="M447.034 46.5455V11.6364H456.42V17.7273H456.784C457.42 15.5606 458.489 13.9242 459.989 12.8182C461.489 11.697 463.216 11.1364 465.17 11.1364C465.655 11.1364 466.178 11.1667 466.739 11.2273C467.299 11.2879 467.792 11.3712 468.216 11.4773V20.0682C467.761 19.9318 467.133 19.8106 466.33 19.7045C465.526 19.5985 464.792 19.5455 464.125 19.5455C462.701 19.5455 461.428 19.8561 460.307 20.4773C459.201 21.0833 458.322 21.9318 457.67 23.0227C457.034 24.1136 456.716 25.3712 456.716 26.7955V46.5455H447.034Z" fill="white"/>
<path d="M488.841 47.7273C485.841 47.7273 483.265 46.6667 481.114 44.5455C478.992 42.3939 477.932 39.8182 477.932 36.8182C477.932 33.8485 478.992 31.303 481.114 29.1818C483.265 27.0606 485.841 26 488.841 26C491.75 26 494.295 27.0606 496.477 29.1818C498.659 31.303 499.75 33.8485 499.75 36.8182C499.75 38.8182 499.235 40.6515 498.204 42.3182C497.204 43.9545 495.886 45.2727 494.25 46.2727C492.614 47.2424 490.811 47.7273 488.841 47.7273Z" fill="#C80000"/>
</svg>
