<svg viewBox="0 0 651 200" fill="none" xmlns="http://www.w3.org/2000/svg">
<path d="M107 64.1818C106.273 56.8485 103.152 51.1515 97.6364 47.0909C92.1212 43.0303 84.6364 41 75.1818 41C68.7576 41 63.3333 41.9091 58.9091 43.7273C54.4849 45.4849 51.0909 47.9394 48.7273 51.0909C46.4242 54.2424 45.2727 57.8182 45.2727 61.8182C45.1515 65.1515 45.8485 68.0606 47.3636 70.5455C48.9394 73.0303 51.0909 75.1818 53.8182 77C56.5455 78.7576 59.697 80.303 63.2727 81.6364C66.8485 82.9091 70.6667 84 74.7273 84.9091L91.4546 88.9091C99.5758 90.7273 107.03 93.1515 113.818 96.1818C120.606 99.2121 126.485 102.939 131.455 107.364C136.424 111.788 140.273 117 143 123C145.788 129 147.212 135.879 147.273 143.636C147.212 155.03 144.303 164.909 138.545 173.273C132.848 181.576 124.606 188.03 113.818 192.636C103.091 197.182 90.1515 199.455 75 199.455C59.9697 199.455 46.8788 197.152 35.7273 192.545C24.6364 187.939 15.9697 181.121 9.72727 172.091C3.54546 163 0.303031 151.758 0 138.364H38.0909C38.5152 144.606 40.303 149.818 43.4545 154C46.6667 158.121 50.9394 161.242 56.2727 163.364C61.6667 165.424 67.7576 166.455 74.5455 166.455C81.2121 166.455 87 165.485 91.9091 163.545C96.8788 161.606 100.727 158.909 103.455 155.455C106.182 152 107.545 148.03 107.545 143.545C107.545 139.364 106.303 135.849 103.818 133C101.394 130.152 97.8182 127.727 93.0909 125.727C88.4242 123.727 82.697 121.909 75.9091 120.273L55.6364 115.182C39.9394 111.364 27.5455 105.394 18.4545 97.2727C9.36364 89.1515 4.84849 78.2121 4.90909 64.4545C4.84849 53.1818 7.84849 43.3333 13.9091 34.9091C20.0303 26.4849 28.4242 19.9091 39.0909 15.1818C49.7576 10.4545 61.8788 8.09091 75.4546 8.09091C89.2727 8.09091 101.333 10.4545 111.636 15.1818C122 19.9091 130.061 26.4849 135.818 34.9091C141.576 43.3333 144.545 53.0909 144.727 64.1818H107Z"/>
<path d="M208.114 156.636L208.205 110.182H213.841L258.568 57.1818H303.023L242.932 127.364H233.75L208.114 156.636ZM173.023 196.818V10.6364H211.75V196.818H173.023ZM260.295 196.818L219.205 136L245.023 108.636L305.659 196.818H260.295Z"/>
<path d="M322.023 196.818V57.1818H360.75V196.818H322.023ZM341.477 39.1818C335.72 39.1818 330.78 37.2727 326.659 33.4545C322.598 29.5758 320.568 24.9394 320.568 19.5455C320.568 14.2121 322.598 9.63637 326.659 5.81819C330.78 1.9394 335.72 0 341.477 0C347.235 0 352.144 1.9394 356.205 5.81819C360.326 9.63637 362.386 14.2121 362.386 19.5455C362.386 24.9394 360.326 29.5758 356.205 33.4545C352.144 37.2727 347.235 39.1818 341.477 39.1818Z"/>
<path d="M430.5 10.6364V196.818H391.773V10.6364H430.5Z"/>
<path d="M500.25 10.6364V196.818H461.523V10.6364H500.25Z"/>
<path d="M647.455 97L612 99.1818C611.394 96.1515 610.091 93.4242 608.091 91C606.091 88.5152 603.455 86.5455 600.182 85.0909C596.97 83.5758 593.121 82.8182 588.636 82.8182C582.636 82.8182 577.576 84.0909 573.455 86.6364C569.333 89.1212 567.273 92.4545 567.273 96.6364C567.273 99.9697 568.606 102.788 571.273 105.091C573.939 107.394 578.515 109.242 585 110.636L610.273 115.727C623.848 118.515 633.97 123 640.636 129.182C647.303 135.364 650.636 143.485 650.636 153.545C650.636 162.697 647.939 170.727 642.545 177.636C637.212 184.545 629.879 189.939 620.545 193.818C611.273 197.636 600.576 199.545 588.455 199.545C569.97 199.545 555.242 195.697 544.273 188C533.364 180.242 526.97 169.697 525.091 156.364L563.182 154.364C564.333 160 567.121 164.303 571.545 167.273C575.97 170.182 581.636 171.636 588.545 171.636C595.333 171.636 600.788 170.333 604.909 167.727C609.091 165.061 611.212 161.636 611.273 157.455C611.212 153.939 609.727 151.061 606.818 148.818C603.909 146.515 599.424 144.758 593.364 143.545L569.182 138.727C555.545 136 545.394 131.273 538.727 124.545C532.121 117.818 528.818 109.242 528.818 98.8182C528.818 89.8485 531.242 82.1212 536.091 75.6364C541 69.1515 547.879 64.1515 556.727 60.6364C565.636 57.1212 576.061 55.3636 588 55.3636C605.636 55.3636 619.515 59.0909 629.636 66.5455C639.818 74 645.758 84.1515 647.455 97Z"/>
</svg>
