<svg viewBox="0 0 24 24" fill="none" xmlns="http://www.w3.org/2000/svg">
<path d="M18.2949 5.14045C18.2949 5.14045 20.1451 4.45181 19.9909 6.12422C19.9395 6.81286 19.477 9.22309 19.1172 11.8301L17.8838 19.5527C17.8838 19.5527 17.781 20.684 16.8559 20.8808C15.9308 21.0775 14.5432 20.1921 14.2862 19.9954C14.0807 19.8478 10.4318 17.6343 9.14696 16.5522C8.7872 16.257 8.37605 15.6668 9.19834 14.9781L14.5946 10.0593C15.2113 9.46904 15.8281 8.09177 13.2584 9.76418L6.06339 14.4371C6.06339 14.4371 5.2411 14.929 3.69934 14.4863L0.358772 13.5025C0.358772 13.5025 -0.874662 12.7647 1.23245 12.0268C6.37177 9.71495 12.6931 7.35391 18.2949 5.14045Z"/>
</svg>
