<svg width="24" height="24" viewBox="0 0 24 24" fill="none" xmlns="http://www.w3.org/2000/svg">
<path d="M19.7117 4.19207C18.7031 3.17588 17.5025 2.37039 16.1799 1.82239C14.8571 1.2744 13.4386 0.994884 12.0069 1.00007C10.0929 1.00194 8.21292 1.50666 6.55532 2.46368C4.89773 3.4207 3.52069 4.79644 2.56207 6.4531C1.60345 8.10977 1.09694 9.98926 1.09323 11.9032C1.08953 13.8173 1.58877 15.6987 2.54096 17.3591L1 23.0138L6.77861 21.5004C8.37427 22.3881 10.1672 22.8613 11.9931 22.8763C14.8958 22.8764 17.6809 21.7299 19.7422 19.6865C21.8037 17.6432 22.9745 14.8682 23 11.9657C22.9904 10.5173 22.6948 9.08511 22.1306 7.75115C21.5664 6.41719 20.7443 5.20773 19.7117 4.19207ZM12.0069 20.9913C10.3802 20.9924 8.78325 20.5552 7.38399 19.7255L7.05378 19.5192L3.62789 20.4272L4.53596 17.0839L4.31582 16.7399C3.14531 14.8505 2.70846 12.5972 3.08803 10.4071C3.4676 8.21709 4.63724 6.24232 6.37535 4.85692C8.11347 3.47151 10.2993 2.77171 12.5188 2.89008C14.7384 3.00843 16.8375 3.93673 18.4184 5.49913C20.1465 7.18895 21.1357 9.49396 21.1701 11.9107C21.1484 14.3265 20.1733 16.636 18.4572 18.3367C16.7412 20.0373 14.4229 20.9915 12.0069 20.9913ZM16.9737 14.1946C16.6986 14.057 15.364 13.3966 15.1163 13.314C14.8687 13.2315 14.676 13.1764 14.4972 13.4516C14.2281 13.8205 13.9386 14.1741 13.6304 14.511C13.4791 14.7036 13.3139 14.7174 13.0388 14.511C11.4699 13.8911 10.1628 12.7491 9.33771 11.2778C9.04878 10.7962 9.61288 10.8237 10.1357 9.79183C10.1744 9.7174 10.1945 9.63484 10.1945 9.55105C10.1945 9.46726 10.1744 9.38471 10.1357 9.31028C10.1357 9.17268 9.51657 7.82434 9.29644 7.28775C9.0763 6.75117 8.85616 6.83372 8.6773 6.81996H8.14071C8.00168 6.82209 7.86472 6.85389 7.73896 6.9132C7.61321 6.97251 7.50157 7.058 7.41151 7.16392C7.10279 7.46411 6.862 7.82698 6.70536 8.22807C6.54872 8.62916 6.47987 9.05917 6.50344 9.48914C6.58971 10.5184 6.97733 11.4994 7.61789 12.3097C8.79039 14.065 10.3973 15.4869 12.2821 16.4372C13.2706 17.0143 14.4195 17.2556 15.5566 17.1252C15.9352 17.05 16.2939 16.8961 16.6091 16.6732C16.9245 16.4504 17.1893 16.1637 17.3865 15.8319C17.5692 15.4268 17.6267 14.9765 17.5516 14.5385C17.4278 14.401 17.2489 14.3322 16.9737 14.1946Z"/>
</svg>
